name rise38.3101peak57.3503fall81.6963.mot
datacolumns 19
datarows 23
range 19.52660400000000 19.56326800000000
endheader
time	ground_force1_vx	ground_force1_vy	ground_force1_vz	ground_force1_px	ground_force1_py	ground_force1_pz	ground_force2_vx	ground_force2_vy	ground_force2_vz	ground_force2_px	ground_force2_py	ground_force2_pz	ground_torque1_x	ground_torque1_y	ground_torque1_z	ground_torque2_x	ground_torque2_y	ground_torque2_z	
19.52660400000000	-35.41719200000000	808.07207400000004	52.81158300000000	0.15897800000000	0.00000000000000	0.07357400000000	-5.47880800000000	21.42391000000000	0.67323700000000	0.00000000000000	0.00000000000000	0.00000000000000	0.00000000000000	23.80985700000000	0.00000000000000	0.00000000000000	-0.28598100000000	0.00000000000000	
19.52826000000000	-36.20197500000000	807.04096600000003	52.75809500000000	0.15794900000000	0.00000000000000	0.07355000000000	-6.63158600000000	27.53636500000000	0.80602100000000	0.35594600000000	0.00000000000000	-0.10217700000000	0.00000000000000	23.72684900000000	0.00000000000000	0.00000000000000	-0.73953600000000	0.00000000000000	
19.52992900000000	-36.99812700000000	805.85874000000001	52.67444900000000	0.15691100000000	0.00000000000000	0.07352500000000	-7.75520000000000	34.09934300000000	0.93151600000000	0.35940100000000	0.00000000000000	-0.10300000000000	0.00000000000000	23.63809100000000	0.00000000000000	0.00000000000000	-0.87516100000000	0.00000000000000	
19.53159700000000	-37.80523200000000	804.52102200000002	52.55975600000000	0.15586500000000	0.00000000000000	0.07349800000000	-8.80693400000000	40.99208800000000	1.04391400000000	0.36241200000000	0.00000000000000	-0.10372300000000	0.00000000000000	23.54352900000000	0.00000000000000	0.00000000000000	-1.00597000000000	0.00000000000000	
19.53326800000000	-38.62279000000000	803.02350999999999	52.41319500000000	0.15481000000000	0.00000000000000	0.07346900000000	-9.74807800000000	48.09460100000000	1.13792500000000	0.36507300000000	0.00000000000000	-0.10436200000000	0.00000000000000	23.44312300000000	0.00000000000000	0.00000000000000	-1.12777200000000	0.00000000000000	
19.53493500000000	-39.45021700000000	801.36198000000002	52.23400900000000	0.15374900000000	0.00000000000000	0.07343900000000	-10.54644600000000	55.29680600000000	1.20909700000000	0.36745900000000	0.00000000000000	-0.10493100000000	0.00000000000000	23.33684200000000	0.00000000000000	0.00000000000000	-1.23705900000000	0.00000000000000	
19.53659500000000	-40.28684100000000	799.53230099999996	52.02151700000000	0.15268200000000	0.00000000000000	0.07340600000000	-11.17807700000000	62.50578900000000	1.25402600000000	0.36962600000000	0.00000000000000	-0.10544100000000	0.00000000000000	23.22466400000000	0.00000000000000	0.00000000000000	-1.33121400000000	0.00000000000000	
19.53826500000000	-41.13190500000000	797.53044399999999	51.77510900000000	0.15161000000000	0.00000000000000	0.07337200000000	-11.62803100000000	69.65058900000000	1.27045700000000	0.37162000000000	0.00000000000000	-0.10590000000000	0.00000000000000	23.10658000000000	0.00000000000000	0.00000000000000	-1.40862100000000	0.00000000000000	
19.53993100000000	-41.98456900000000	795.35249999999996	51.49425500000000	0.15053400000000	0.00000000000000	0.07333600000000	-11.89033800000000	76.68442500000000	1.25727200000000	0.37347600000000	0.00000000000000	-0.10631400000000	0.00000000000000	22.98259100000000	0.00000000000000	0.00000000000000	-1.46866900000000	0.00000000000000	
19.54159800000000	-42.84390700000000	792.99468500000000	51.17850600000000	0.14945600000000	0.00000000000000	0.07329700000000	-11.96722100000000	83.58456800000000	1.21438600000000	0.37522300000000	0.00000000000000	-0.10668900000000	0.00000000000000	22.85270300000000	0.00000000000000	0.00000000000000	-1.51168100000000	0.00000000000000	
19.54326100000000	-43.70891300000000	790.45335899999998	50.82749600000000	0.14837600000000	0.00000000000000	0.07325600000000	-11.86777900000000	90.35025300000000	1.14258500000000	0.37688300000000	0.00000000000000	-0.10703000000000	0.00000000000000	22.71693400000000	0.00000000000000	0.00000000000000	-1.53878100000000	0.00000000000000	
19.54493300000000	-44.57849800000000	787.72503400000005	50.44094400000000	0.14729600000000	0.00000000000000	0.07321200000000	-11.60633300000000	96.99914300000000	1.04330400000000	0.37847400000000	0.00000000000000	-0.10734100000000	0.00000000000000	22.57531000000000	0.00000000000000	0.00000000000000	-1.55171200000000	0.00000000000000	
19.54659700000000	-45.45149600000000	784.80638599999997	50.01865800000000	0.14621700000000	0.00000000000000	0.07316600000000	-11.20063100000000	103.56290400000000	0.91840900000000	0.38001200000000	0.00000000000000	-0.10762400000000	0.00000000000000	22.42786100000000	0.00000000000000	0.00000000000000	-1.55263500000000	0.00000000000000	
19.54826500000000	-46.32666400000000	781.69427199999996	49.56053700000000	0.14514000000000	0.00000000000000	0.07311700000000	-10.67008800000000	110.08238700000000	0.76996700000000	0.38150800000000	0.00000000000000	-0.10788300000000	0.00000000000000	22.27462600000000	0.00000000000000	0.00000000000000	-1.54394000000000	0.00000000000000	
19.54993400000000	-47.20268700000000	778.38573399999996	49.06656900000000	0.14406800000000	0.00000000000000	0.07306500000000	-10.03419000000000	116.60290900000000	0.60005100000000	0.38297100000000	0.00000000000000	-0.10811900000000	0.00000000000000	22.11564700000000	0.00000000000000	0.00000000000000	-1.52805600000000	0.00000000000000	
19.55159900000000	-48.07817900000000	774.87801800000000	48.53683600000000	0.14300200000000	0.00000000000000	0.07301000000000	-9.31116800000000	123.16996600000000	0.41056800000000	0.38441100000000	0.00000000000000	-0.10833600000000	0.00000000000000	21.95097200000000	0.00000000000000	0.00000000000000	-1.50730400000000	0.00000000000000	
19.55326400000000	-48.95168800000000	771.16857900000002	47.97151400000000	0.14194300000000	0.00000000000000	0.07295200000000	-8.51700100000000	129.82566199999999	0.20314200000000	0.38583200000000	0.00000000000000	-0.10853400000000	0.00000000000000	21.78065300000000	0.00000000000000	0.00000000000000	-1.48377900000000	0.00000000000000	
19.55492600000000	-49.82169600000000	767.25509799999998	47.37087400000000	0.14089200000000	0.00000000000000	0.07289100000000	-7.66476200000000	136.60598600000000	-0.02097200000000	0.38723900000000	0.00000000000000	-0.10871500000000	0.00000000000000	21.60474300000000	0.00000000000000	0.00000000000000	-1.45926700000000	0.00000000000000	
19.55659700000000	-50.68662800000000	763.13548500000002	46.73528100000000	0.13985300000000	0.00000000000000	0.07282600000000	-6.76429900000000	143.53901200000001	-0.26091700000000	0.38863700000000	0.00000000000000	-0.10888100000000	0.00000000000000	21.42330000000000	0.00000000000000	0.00000000000000	-1.43520900000000	0.00000000000000	
19.55826000000000	-51.54485600000000	758.80789600000003	46.06519700000000	0.13882500000000	0.00000000000000	0.07275800000000	-5.82222300000000	150.64398199999999	-0.51624100000000	0.39002700000000	0.00000000000000	-0.10903300000000	0.00000000000000	21.23638000000000	0.00000000000000	0.00000000000000	-1.41269200000000	0.00000000000000	
19.55992700000000	-52.39469600000000	754.27074100000004	45.36117700000000	0.13781000000000	0.00000000000000	0.07268600000000	-4.84213600000000	157.93118799999999	-0.78685500000000	0.39141200000000	0.00000000000000	-0.10917100000000	0.00000000000000	21.04404400000000	0.00000000000000	0.00000000000000	-1.39246700000000	0.00000000000000	
19.56159300000000	-53.23442200000000	749.52269000000001	44.62387300000000	0.13681100000000	0.00000000000000	0.07261100000000	-3.82504500000000	165.40250800000001	-1.07298500000000	0.39279300000000	0.00000000000000	-0.10929800000000	0.00000000000000	20.84634900000000	0.00000000000000	0.00000000000000	-1.37499500000000	0.00000000000000	
19.56326800000000	-54.06226600000000	744.56268899999998	43.85402800000000	0.13582900000000	0.00000000000000	0.07253100000000	-2.76990400000000	173.05244700000000	-1.37509200000000	0.39417100000000	0.00000000000000	-0.10941300000000	0.00000000000000	20.64335500000000	0.00000000000000	0.00000000000000	-1.36049900000000	0.00000000000000	
